# AST/ASF file generated using VICON BodyLanguage
# -----------------------------------------------
:version 1.10
:name VICON
:units
  mass 1.0
  length 0.45
  angle deg
:documentation
   .ast/.asf automatically generated from VICON data using
   VICON BodyBuilder and BodyLanguage model FoxedUp or BRILLIANT.MOD
:root
   order TX TY TZ RX RY RZ
   axis XYZ
   position 0 0 0  
   orientation 0 0 0 
:bonedata
  begin
     id 1 
     name lhipjoint
     direction 0.560651 -0.75055 0.34978 
     length 2.44936 
     axis 0 0 0  XYZ
  end
  begin
     id 2 
     name lfemur
     direction 0.34202 -0.939693 0  
     length 7.42139  
     axis 0 0 20  XYZ
    dof rx ry rz
    limits (-160.0 20.0)
           (-70.0 70.0)
           (-60.0 70.0)
  end
  begin
     id 3 
     name ltibia
     direction 0.34202 -0.939693 0   
     length 7.75674   
     axis 0 0 20   XYZ
    dof rx
    limits (-10.0 170.0)
  end
  begin
     id 4 
     name lfoot
     direction 0.0925879 -0.254383 0.962661   
     length 2.38688   
     axis -90 7.62852e-016 20   XYZ
    dof rx rz
    limits (-45.0 90.0)
           (-70.0 20.0)
  end
  begin
     id 5 
     name ltoes
     direction 1.53567e-011 -4.21973e-011 1   
     length 1.19228   
     axis -90 7.62852e-016 20   XYZ
    dof rx
    limits (-90.0 20.0)
  end
  begin
     id 6 
     name rhipjoint
     direction -0.540087 -0.762838 0.355506   
     length 2.4099  
     axis 0 0 0  XYZ 
  end
  begin
     id 7 
     name rfemur
     direction -0.34202 -0.939693 0   
     length 7.70794   
     axis 0 0 -20   XYZ
    dof rx ry rz
    limits (-160.0 20.0)
           (-70.0 70.0)
           (-70.0 60.0)
  end
  begin
     id 8 
     name rtibia
     direction -0.34202 -0.939693 0   
     length 7.66106   
     axis 0 0 -20   XYZ
    dof rx
    limits (-10.0 170.0)
 end
 begin
     id 9 
     name rfoot
     direction -0.0830975 -0.228308 0.970036   
     length 2.4989  
     axis -90 -7.62852e-016 -20   XYZ
    dof rx rz
    limits (-45.0 90.0)
           (-20.0 70.0)
  end
  begin
     id 10 
     name rtoes
     direction -1.53517e-011 -4.21842e-011 1   
     length 1.2498   
     axis -90 -7.62852e-016 -20   XYZ
    dof rx
    limits (-90.0 20.0)
  end
  begin
     id 11 
     name lowerback
     direction 0.0266356 0.99402 -0.105896   
     length 2.1545   
     axis 0 0 0   XYZ
    dof rx ry rz
    limits (-20.0 45.0)
           (-30.0 30.0)
           (-30.0 30.0)
  end
  begin
     id 12 
     name upperback
     direction 0.0130547 0.999192 0.0380027   
     length 2.1434   
     axis 0 0 0   XYZ
    dof rx ry rz
    limits (-20.0 45.0)
           (-30.0 30.0)
           (-30.0 30.0)
  end
  begin
     id 13 
     name thorax
     direction 0.000590299 0.996288 0.0860764   
     length 2.19049   
     axis 0 0 0   XYZ
    dof rx ry rz
    limits (-20.0 45.0)
           (-30.0 30.0)
           (-30.0 30.0)
  end
  begin
     id 14 
     name lowerneck
     direction -0.0432125 0.978219 0.203028   
     length 1.62441   
     axis 0 0 0   XYZ
    dof rx ry rz
    limits (-20.0 45.0)
           (-30.0 30.0)
           (-30.0 30.0)
  end
  begin
     id 15 
     name upperneck
     direction -0.0192309 0.991699 -0.127138   
     length 1.66666   
     axis 0 0 0   XYZ
    dof rx ry rz
    limits (-20.0 45.0)
           (-30.0 30.0)
           (-30.0 30.0)
  end
  begin
     id 16
     name head
     direction -0.00434499 0.997882 -0.0649107  
     length 1.67142  
     axis 0 0 0   XYZ
    dof rx ry rz
    limits (-20.0 45.0)
           (-30.0 30.0)
           (-30.0 30.0)
  end
  begin
     id 17 
     name lclavicle
     direction 0.970351 0.240904 -0.0196058  
     length 4.04862  
     axis 0 0 0   XYZ
    dof ry rz
    limits (-20.0 10.0)
           (0.0 20.0)
  end
  begin
     id 18 
     name lhumerus
     direction 1 -4.4896e-011 -1.40911e-018   
     length 5.58345   
     axis 180 -30 -90   XYZ
    dof rx ry rz
    limits (-60.0 90.0)
           (-90.0 90.0)
           (-90.0 90.0)
  end
  begin
     id 19
     name lradius
     direction 1 -4.48968e-011 5.88912e-028   
     length 3.71087   
     axis 180 -30 -90   XYZ
    dof rx
    limits (-10.0 170.0)
  end
  begin
     id 20
     name lwrist
     direction 1 -4.48955e-011 -8.83775e-028   
     length 1.85544   
     axis 5.52448e-016 90 90   XYZ
    dof ry
    limits (-180.0 0.0)
 end
  begin
     id 21 
     name lhand
     direction 1 -4.49035e-011 -1.76755e-027   
     length 0.562322   
     axis 1.12785e-015 90 90   XYZ
    dof rx rz
    limits (-90.0 90.0)
           (-45.0 45.0)
  end
  begin
     id 22 
     name lfingers
     direction 1 -4.48824e-011 -3.5351e-027   
     length 0.453359   
     axis 2.2557e-015 90 90   XYZ
    dof rx
    limits (0.0 90.0)
  end
  begin
     id 23
     name lthumb
     direction 0.707107 -6.34888e-011 0.707107   
     length 0.650935   
     axis -90 45 2.85299e-015   XYZ
    dof rx rz
    limits (-45.0 45.0)
           (-45.0 45.0)
  end
  begin
     id 24 
     name rclavicle
     direction -0.96165 0.268562 -0.0557131   
     length 4.05446  
     axis 0 0 0   XYZ 
    dof ry rz
    limits (-10.0 20.0)
           (-20.0 0.0)
  end
  begin
     id 25 
     name rhumerus
     direction -1 -4.48957e-011 -3.36329e-027  
     length 5.20357   
     axis 180 30 90   XYZ
    dof rx ry rz
    limits (-90.0 60.0)
           (-90.0 90.0)
           (-90.0 90.0)
  end
  begin
     id 26 
     name rradius
     direction -1 -4.48974e-011 4.51441e-027   
     length 3.64937   
     axis 180 30 90   XYZ
    dof rx
    limits (-10.0 170.0)
  end
  begin
     id 27 
     name rwrist
     direction -1 -4.4896e-011 -8.83775e-028   
     length 1.82468   
     axis 5.52448e-016 -90 -90   XYZ
    dof ry
    limits (-180.0 0.0)
  end
  begin
     id 28
     name rhand
     direction -1 -4.48996e-011 -1.76755e-027   
     length 0.617996   
     axis 1.12785e-015 -90 -90   XYZ
    dof rx rz
    limits (-90.0 90.0)
           (-45.0 45.0)
  end
  begin
     id 29
     name rfingers
     direction -1 -4.48957e-011 -3.5351e-027   
     length 0.498244   
     axis 2.2557e-015 -90 -90   XYZ
    dof rx
    limits (0.0 90.0)
  end
  begin
     id 30
     name rthumb
     direction -0.707107 -6.34931e-011 0.707107   
     length 0.715382   
     axis -90 -45 -2.85299e-015   XYZ
    dof rx rz
    limits (-45.0 45.0)
           (-45.0 45.0)
  end
:hierarchy
  begin
    root lhipjoint rhipjoint lowerback
    lhipjoint lfemur
    lfemur ltibia
    ltibia lfoot
    lfoot ltoes
    rhipjoint rfemur
    rfemur rtibia
    rtibia rfoot
    rfoot rtoes
    lowerback upperback
    upperback thorax
    thorax lowerneck lclavicle rclavicle
    lowerneck upperneck
    upperneck head
    lclavicle lhumerus
    lhumerus lradius
    lradius lwrist
    lwrist lhand lthumb
    lhand lfingers
    rclavicle rhumerus
    rhumerus rradius
    rradius rwrist
    rwrist rhand rthumb
    rhand rfingers
  end

#!OML:ASF H:\ManfredETheater\Project 1\Capture day 2\Session 1\Male1.ASF
:FULLY-SPECIFIED
:DEGREES
173
root 1.24153 17.847 26.7165 7.63843 2.76701 -5.05701
lowerback 3.16278 0.032141 4.06773
upperback -2.92373 0.432879 3.84892
thorax -4.80965 0.148489 1.67864
lowerneck -23.8142 -0.560418 -1.07262
upperneck 17.3181 0.177628 -2.51792
head 9.37527 -0.293107 -0.678476
rclavicle 5.11871e-015 -1.43125e-014
rhumerus -34.2557 -2.06546 -84.7087
rradius 37.9326
rwrist 6.93471
rhand -28.0074 -10.0109
rfingers 7.12502
rthumb -1.39304 -39.9861
lclavicle 5.11871e-015 -1.43125e-014
lhumerus -38.7957 1.56402 91.3798
lradius 43.0671
lwrist -7.17733
lhand -7.1184 9.04216
lfingers 7.12502
lthumb 18.7569 38.1578
rfemur -9.49241 -1.36895 28.8755
rtibia 28.2409
rfoot -20.456 -5.04556
rtoes 4.30402
lfemur -12.1046 -3.19857 -17.459
ltibia 32.4542
lfoot -21.307 1.46384
ltoes 8.99198
174
root 1.2438 17.8442 26.7312 7.69661 2.6952 -5.08014
lowerback 3.22879 0.0446717 4.06139
upperback -2.90527 0.4529 3.85171
thorax -4.82801 0.158577 1.68362
lowerneck -23.7513 -0.521349 -0.984767
upperneck 17.2464 0.205128 -2.55039
head 9.33944 -0.276905 -0.699193
rclavicle -1.54058e-015 -3.10104e-014
rhumerus -34.2539 -2.02294 -84.7459
rradius 37.9575
rwrist 6.90263
rhand -28.0278 -10.0333
rfingers 7.12502
rthumb -1.41274 -40.0084
lclavicle -1.54058e-015 -3.10104e-014
lhumerus -38.9132 1.72484 91.2282
lradius 43.0646
lwrist -7.12206
lhand -7.17093 9.06217
lfingers 7.12502
lthumb 18.7064 38.1827
rfemur -9.50926 -1.25599 28.8979
rtibia 28.263
rfoot -20.4826 -5.0786
rtoes 4.37916
lfemur -12.1368 -3.07977 -17.4397
ltibia 32.4978
lfoot -21.3255 1.40726
ltoes 8.94091
175
root 1.24675 17.8414 26.7469 7.7352 2.6897 -5.05776
lowerback 3.31257 0.0441153 4.02892
upperback -2.88538 0.45512 3.85326
thorax -4.85511 0.160644 1.70324
lowerneck -23.6838 -0.517795 -0.971126
upperneck 17.1766 0.204433 -2.56061
head 9.30329 -0.276272 -0.704226
rclavicle -1.78906e-014 1.03368e-014
rhumerus -34.2231 -1.95434 -84.7456
rradius 37.9153
rwrist 6.88282
rhand -28.102 -9.93523
rfingers 7.12502
rthumb -1.48444 -39.9098
lclavicle -1.78906e-014 1.03368e-014
lhumerus -39.0053 1.80442 91.1831
lradius 42.8942
lwrist -6.57954
lhand -7.98521 8.45376
lfingers 7.12502
lthumb 17.9231 37.6479
rfemur -9.50894 -1.20599 28.8772
rtibia 28.291
rfoot -20.5153 -5.12779
rtoes 4.584
lfemur -12.1476 -2.85788 -17.4496
ltibia 32.5305
lfoot -21.3097 1.13993
ltoes 9.02973
176
root 1.25019 17.8393 26.7645 7.79048 2.63397 -5.04842
lowerback 3.3914 0.0897671 4.03309
upperback -2.85243 0.519386 3.84028
thorax -4.86538 0.192202 1.68237
lowerneck -23.7455 -0.537147 -0.995137
upperneck 17.1669 0.182003 -2.53774
head 9.31023 -0.285919 -0.695913
rclavicle -4.47266e-016 -4.53229e-014
rhumerus -34.1523 -2.08474 -84.6939
rradius 37.8409
rwrist 7.00553
rhand -28.1161 -9.82074
rfingers 7.12502
rthumb -1.498 -39.7952
lclavicle -4.47266e-016 -4.53229e-014
lhumerus -39.0262 1.85988 91.1032
lradius 42.7792
lwrist -6.58015
lhand -8.01272 8.46598
lfingers 7.12502
lthumb 17.8966 37.6625
rfemur -9.52299 -1.18174 28.8554
rtibia 28.322
rfoot -20.5153 -5.11085
rtoes 4.75328
lfemur -12.1566 -2.6847 -17.4625
ltibia 32.5601
lfoot -21.3111 0.997073
ltoes 8.92613
177
root 1.25482 17.839 26.7833 7.83307 2.63656 -5.03072
lowerback 3.46942 0.10735 4.04511
upperback -2.82538 0.547283 3.83638
thorax -4.88145 0.20553 1.66933
lowerneck -23.7165 -0.560017 -1.03982
upperneck 17.0953 0.159224 -2.51854
head 9.27992 -0.29629 -0.68466
rclavicle -1.0138e-014 1.19271e-014
rhumerus -34.0997 -2.13841 -84.6437
rradius 37.8257
rwrist 7.01777
rhand -28.0597 -10.0238
rfingers 7.12502
rthumb -1.44353 -39.9987
lclavicle -1.0138e-014 1.19271e-014
lhumerus -39.0725 1.92478 91.0358
lradius 42.6639
lwrist -6.56721
lhand -8.14481 8.43756
lfingers 7.12502
lthumb 17.7695 37.6457
rfemur -9.51346 -1.17598 28.8285
rtibia 28.3451
rfoot -20.5111 -5.12667
rtoes 4.83358
lfemur -12.1375 -2.68768 -17.4858
ltibia 32.5725
lfoot -21.2753 0.924542
ltoes 8.93151
178
root 1.25747 17.8388 26.8032 7.86527 2.62408 -5.05501
lowerback 3.50773 0.10569 4.05859
upperback -2.78038 0.546391 3.84782
thorax -4.85622 0.205331 1.67334
lowerneck -23.6636 -0.52997 -1.01271
upperneck 17.0161 0.191474 -2.5341
head 9.24338 -0.280022 -0.688953
rclavicle 2.83268e-015 -2.46493e-014
rhumerus -33.9778 -2.11601 -84.6524
rradius 37.6823
rwrist 7.06537
rhand -28.1272 -9.96206
rfingers 7.12502
rthumb -1.50881 -39.9365
lclavicle 2.83268e-015 -2.46493e-014
lhumerus -39.1076 2.05064 90.9112
lradius 42.5465
lwrist -6.56282
lhand -8.16172 8.50611
lfingers 7.12502
lthumb 17.7532 37.7157
rfemur -9.48597 -1.10246 28.8607
rtibia 28.3561
rfoot -20.5005 -5.21922
rtoes 4.97485
lfemur -12.0919 -2.64066 -17.4551
ltibia 32.5558
lfoot -21.2302 0.843183
ltoes 8.82363
179
root 1.2604 17.8395 26.8222 7.93303 2.58467 -5.02848
lowerback 3.54163 0.104507 4.0159
upperback -2.77006 0.543696 3.83922
thorax -4.86484 0.205227 1.68838
lowerneck -23.6189 -0.517012 -0.949221
upperneck 16.9915 0.193424 -2.5673
head 9.2271 -0.278162 -0.710102
rclavicle 9.93923e-017 -1.59028e-015
rhumerus -33.9117 -2.09556 -84.6857
rradius 37.6114
rwrist 7.0964
rhand -28.1124 -10.0556
rfingers 7.12502
rthumb -1.4945 -40.0302
lclavicle 9.93923e-017 -1.59028e-015
lhumerus -39.2035 2.17526 90.7716
lradius 42.4391
lwrist -6.53919
lhand -8.24802 8.54826
lfingers 7.12502
lthumb 17.6702 37.7653
rfemur -9.49919 -0.959441 28.8387
rtibia 28.357
rfoot -20.4828 -5.33988
rtoes 5.21526
lfemur -12.0822 -2.61465 -17.482
ltibia 32.5324
lfoot -21.1771 0.771745
ltoes 8.845
180
root 1.26333 17.842 26.8435 8.00991 2.5777 -4.94502
lowerback 3.6014 0.132562 3.94892
upperback -2.77403 0.580691 3.81673
thorax -4.90317 0.225043 1.69965
lowerneck -23.5918 -0.536675 -1.02926
upperneck 16.9721 0.182486 -2.52155
head 9.21553 -0.282873 -0.682525
rclavicle -3.42904e-015 -2.70347e-014
rhumerus -33.8557 -2.22578 -84.6268
rradius 37.4704
rwrist 7.20065
rhand -28.2368 -9.86406
rfingers 7.12502
rthumb -1.61461 -39.8377
lclavicle -3.42904e-015 -2.70347e-014
lhumerus -39.2622 2.21223 90.6913
lradius 42.2505
lwrist -6.5965
lhand -8.28915 8.47233
lfingers 7.12502
lthumb 17.6306 37.693
rfemur -9.49944 -0.816516 28.761
rtibia 28.34
rfoot -20.465 -5.49712
rtoes 5.507
lfemur -12.0644 -2.84746 -17.587
ltibia 32.5057
lfoot -21.1315 0.94052
ltoes 8.70065
181
root 1.26575 17.8434 26.8647 8.09503 2.56326 -4.91606
lowerback 3.60037 0.142284 3.91607
upperback -2.7499 0.589796 3.805
thorax -4.87732 0.230831 1.70481
lowerneck -23.5645 -0.540669 -1.04111
upperneck 16.9116 0.176557 -2.51098
head 9.18958 -0.284318 -0.677244
rclavicle 8.79622e-015 3.26007e-014
rhumerus -33.7105 -2.24661 -84.6427
rradius 37.3437
rwrist 7.1852
rhand -28.2698 -10.0979
rfingers 7.12502
rthumb -1.64647 -40.0713
lclavicle 8.79622e-015 3.26007e-014
lhumerus -39.2635 2.30775 90.5666
lradius 42.0822
lwrist -6.65163
lhand -8.18388 8.65433
lfingers 7.12502
lthumb 17.7319 37.8658
rfemur -9.52768 -0.662306 28.7466
rtibia 28.3408
rfoot -20.4418 -5.66916
rtoes 5.62028
lfemur -12.0854 -2.74288 -17.605
ltibia 32.4828
lfoot -21.0595 0.78272
ltoes 8.77131
182
root 1.26716 17.8456 26.8862 8.16383 2.54048 -4.9686
lowerback 3.5816 0.160315 3.95108
upperback -2.69957 0.612553 3.82238
thorax -4.81393 0.242147 1.70103
lowerneck -23.5831 -0.551061 -1.01271
upperneck 16.8813 0.163403 -2.56072
head 9.18223 -0.294172 -0.70093
rclavicle -1.12313e-014 -1.11319e-014
rhumerus -33.5508 -2.30561 -84.6348
rradius 37.1668
rwrist 7.27757
rhand -28.31 -9.97992
rfingers 7.12502
rthumb -1.68531 -39.953
lclavicle -1.12313e-014 -1.11319e-014
lhumerus -39.2292 2.34165 90.4699
lradius 41.8808
lwrist -6.6893
lhand -8.21114 8.70186
lfingers 7.12502
lthumb 17.7057 37.9157
rfemur -9.53738 -0.381387 28.8338
rtibia 28.3442
rfoot -20.4143 -5.93958
rtoes 6.03961
lfemur -12.0918 -2.79424 -17.5427
ltibia 32.4731
lfoot -20.8677 0.830268
ltoes 9.25265
183
root 1.27096 17.8472 26.9105 8.2645 2.57962 -4.86477
lowerback 3.5307 0.123339 3.84278
upperback -2.70741 0.553272 3.80803
thorax -4.79343 0.216257 1.75116
lowerneck -23.4499 -0.523497 -0.987304
upperneck 16.8166 0.193016 -2.58299
head 9.13711 -0.279655 -0.707328
rclavicle 3.47873e-015 5.40694e-014
rhumerus -33.4483 -2.32923 -84.649
rradius 37.0054
rwrist 7.40582
rhand -28.2613 -10.1017
rfingers 7.12502
rthumb -1.63829 -40.0751
lclavicle 3.47873e-015 5.40694e-014
lhumerus -39.3066 2.50687 90.3169
lradius 41.6797
lwrist -6.80001
lhand -8.24237 8.62592
lfingers 7.12502
lthumb 17.6756 37.8425
rfemur -9.58241 -0.325928 28.7364
rtibia 28.3715
rfoot -20.3833 -6.09904
rtoes 6.24669
lfemur -12.1332 -2.66822 -17.6492
ltibia 32.4716
lfoot -20.7869 0.653519
ltoes 9.14811
184
root 1.27501 17.8484 26.9324 8.36568 2.58885 -4.85351
lowerback 3.50096 0.105614 3.84416
upperback -2.72752 0.528469 3.80124
thorax -4.79736 0.203632 1.74538
lowerneck -23.2751 -0.49378 -0.961006
upperneck 16.737 0.219875 -2.58629
head 9.0796 -0.263665 -0.7074
rclavicle 5.46658e-015 -1.59028e-015
rhumerus -33.3869 -2.39026 -84.6733
rradius 36.8491
rwrist 7.51115
rhand -28.2819 -9.98275
rfingers 7.12502
rthumb -1.65814 -39.9561
lclavicle 5.46658e-015 -1.59028e-015
lhumerus -39.4016 2.69658 90.1522
lradius 41.4917
lwrist -6.99159
lhand -8.0266 8.74862
lfingers 7.12502
lthumb 17.8832 37.9464
rfemur -9.6389 -0.146751 28.7455
rtibia 28.3956
rfoot -20.3431 -6.33912
rtoes 6.58768
lfemur -12.1957 -2.36978 -17.6476
ltibia 32.4635
lfoot -20.6953 0.355788
ltoes 9.19369
185
root 1.27891 17.8512 26.955 8.46752 2.61867 -4.75042
lowerback 3.45346 0.0966293 3.75137
upperback -2.67754 0.504749 3.78898
thorax -4.71816 0.195691 1.7856
lowerneck -23.3179 -0.487257 -0.939094
upperneck 16.6906 0.241031 -2.67641
head 9.07142 -0.262598 -0.73905
rclavicle 3.57812e-015 -3.18055e-014
rhumerus -33.1774 -2.41051 -84.6652
rradius 36.6905
rwrist 7.56522
rhand -28.2824 -10.0618
rfingers 7.12502
rthumb -1.65867 -40.0351
lclavicle 3.57812e-015 -3.18055e-014
lhumerus -39.3213 2.7792 90.0635
lradius 41.285
lwrist -7.11105
lhand -7.93824 8.82781
lfingers 7.12502
lthumb 17.9683 38.0178
rfemur -9.69982 -0.0325506 28.653
rtibia 28.4273
rfoot -20.3154 -6.55017
rtoes 6.7222
lfemur -12.2264 -2.48102 -17.7792
ltibia 32.4433
lfoot -20.5895 0.469533
ltoes 9.03513
186
root 1.28342 17.8556 26.9771 8.59086 2.63048 -4.70644
lowerback 3.42106 0.0758384 3.72706
upperback -2.69259 0.473718 3.77614
thorax -4.71525 0.1808 1.78823
lowerneck -23.155 -0.450634 -0.797323
upperneck 16.5593 0.267356 -2.81506
head 8.99859 -0.25434 -0.804423
rclavicle -2.5345e-015 -9.54166e-015
rhumerus -33.088 -2.52815 -84.6854
rradius 36.5534
rwrist 7.74167
rhand -28.2358 -10.0286
rfingers 7.12502
rthumb -1.61369 -40.0022
lclavicle -2.5345e-015 -9.54166e-015
lhumerus -39.3437 2.84832 89.9367
lradius 41.0585
lwrist -7.16977
lhand -7.94569 8.83461
lfingers 7.12502
lthumb 17.9611 38.0252
rfemur -9.77946 0.111068 28.6158
rtibia 28.4461
rfoot -20.3113 -6.71754
rtoes 6.93278
lfemur -12.2789 -2.74137 -17.8635
ltibia 32.4326
lfoot -20.4606 0.762249
ltoes 8.78815
187
root 1.28862 17.8593 26.9989 8.68431 2.70793 -4.69172
lowerback 3.45653 0.0294343 3.75138
upperback -2.71548 0.416425 3.77154
thorax -4.75908 0.150957 1.77452
lowerneck -23.1783 -0.42998 -0.842885
upperneck 16.6201 0.304692 -2.77735
head 9.02406 -0.23641 -0.779247
rclavicle -5.91384e-015 -2.62396e-014
rhumerus -32.9915 -2.51635 -84.7298
rradius 36.4307
rwrist 7.72653
rhand -28.1933 -10.1381
rfingers 7.12502
rthumb -1.57258 -40.112
lclavicle -5.91384e-015 -2.62396e-014
lhumerus -39.4172 2.98621 89.7766
lradius 40.9054
lwrist -7.32573
lhand -7.8476 8.81437
lfingers 7.12502
lthumb 18.0555 37.9963
rfemur -9.82996 0.174461 28.6189
rtibia 28.4681
rfoot -20.2361 -6.92121
rtoes 6.92985
lfemur -12.3143 -2.97484 -17.9018
ltibia 32.4263
lfoot -20.3968 0.894854
ltoes 8.8436
